# Icosahedron Light Source
# Vertices: 12
# Faces: 20

v 0.000000 0.500000 0.000000
v 0.425325 0.223607 0.138197
v 0.000000 0.223607 0.447214
v 0.262866 0.223607 -0.361803
v -0.262866 0.223607 -0.361803
v -0.425325 0.223607 0.138197
v 0.000000 -0.500000 0.000000
v 0.262866 -0.223607 0.361803
v 0.425325 -0.223607 -0.138197
v 0.000000 -0.223607 -0.447214
v -0.425325 -0.223607 -0.138197
v -0.262866 -0.223607 0.361803
vn 0.000000 1.000000 0.000000
vn 0.850650 0.447214 0.276394
vn 0.000000 0.447214 0.894427
vn 0.525732 0.447214 -0.723606
vn -0.525732 0.447214 -0.723606
vn -0.850650 0.447214 0.276394
vn 0.000000 -1.000000 0.000000
vn 0.525732 -0.447214 0.723606
vn 0.850650 -0.447214 -0.276394
vn 0.000000 -0.447214 -0.894427
vn -0.850650 -0.447214 -0.276394
vn -0.525732 -0.447214 0.723606

f 2//2 1//1 3//3
f 4//4 1//1 2//2
f 5//5 1//1 4//4
f 6//6 1//1 5//5
f 3//3 1//1 6//6
f 8//8 7//7 9//9
f 9//9 7//7 10//10
f 10//10 7//7 11//11
f 11//11 7//7 12//12
f 12//12 7//7 8//8
f 2//2 3//3 8//8
f 4//4 2//2 9//9
f 5//5 4//4 10//10
f 6//6 5//5 11//11
f 3//3 6//6 12//12
f 8//8 9//9 2//2
f 9//9 10//10 4//4
f 10//10 11//11 5//5
f 11//11 12//12 6//6
f 12//12 8//8 3//3